name GIL03_static.mot
datacolumns 141
datarows 4
range 0.96666664 0.99166667
endheader

                time	           pelvis_tx	           pelvis_ty	           pelvis_tz	         pelvis_tilt	         pelvis_list	     pelvis_rotation	       hip_flexion_r	     hip_adduction_r	      hip_rotation_r	        knee_angle_r	       ankle_angle_r	    subtalar_angle_r	         mtp_angle_r	       hip_flexion_l	     hip_adduction_l	      hip_rotation_l	        knee_angle_l	       ankle_angle_l	    subtalar_angle_l	         mtp_angle_l	    lumbar_extension	      lumbar_bending	     lumbar_rotation	    ground_marker_px	    ground_marker_py	    ground_marker_pz	    ground_marker_px	    ground_marker_py	    ground_marker_pz	    ground_marker_px	    ground_marker_py	    ground_marker_pz	    ground_marker_px	    ground_marker_py	    ground_marker_pz	    ground_marker_px	    ground_marker_py	    ground_marker_pz	    ground_marker_px	    ground_marker_py	    ground_marker_pz	    ground_marker_px	    ground_marker_py	    ground_marker_pz	    ground_marker_px	    ground_marker_py	    ground_marker_pz	    ground_marker_px	    ground_marker_py	    ground_marker_pz	    ground_marker_px	    ground_marker_py	    ground_marker_pz	    ground_marker_px	    ground_marker_py	    ground_marker_pz	    ground_marker_px	    ground_marker_py	    ground_marker_pz	    ground_marker_px	    ground_marker_py	    ground_marker_pz	    ground_marker_px	    ground_marker_py	    ground_marker_pz	    ground_marker_px	    ground_marker_py	    ground_marker_pz	    ground_marker_px	    ground_marker_py	    ground_marker_pz	    ground_marker_px	    ground_marker_py	    ground_marker_pz	    ground_marker_px	    ground_marker_py	    ground_marker_pz	    ground_marker_px	    ground_marker_py	    ground_marker_pz	    ground_marker_px	    ground_marker_py	    ground_marker_pz	    ground_marker_px	    ground_marker_py	    ground_marker_pz	    ground_marker_px	    ground_marker_py	    ground_marker_pz	    ground_marker_px	    ground_marker_py	    ground_marker_pz	    ground_marker_px	    ground_marker_py	    ground_marker_pz	    ground_marker_px	    ground_marker_py	    ground_marker_pz	    ground_marker_px	    ground_marker_py	    ground_marker_pz	    ground_marker_px	    ground_marker_py	    ground_marker_pz	    ground_marker_px	    ground_marker_py	    ground_marker_pz	    ground_marker_px	    ground_marker_py	    ground_marker_pz	    ground_marker_px	    ground_marker_py	    ground_marker_pz	    ground_marker_px	    ground_marker_py	    ground_marker_pz	    ground_marker_px	    ground_marker_py	    ground_marker_pz	    ground_marker_px	    ground_marker_py	    ground_marker_pz	    ground_marker_px	    ground_marker_py	    ground_marker_pz	    ground_marker_px	    ground_marker_py	    ground_marker_pz	    ground_marker_px	    ground_marker_py	    ground_marker_pz	    ground_marker_px	    ground_marker_py	    ground_marker_pz	    ground_marker_px	    ground_marker_py	    ground_marker_pz	    ground_marker_px	    ground_marker_py	    ground_marker_pz	
          0.96666664	          1.52601910	          0.90579808	         -0.26091945	         -6.56454849	         -2.72457814	          4.49918890	          3.14603806	         -2.19815850	          9.89141273	          0.81215131	          3.33250260	          0.00000000	          0.00000000	          6.95634079	         -5.80459166	          9.98266697	         -3.51471066	          2.91406465	          0.00000000	          0.00000000	         -0.30414003	         -3.11578751	         -0.64141673	          1.45552337	          0.83536470	         -0.25317603	          1.46573794	          0.83646828	         -0.19534564	          1.44530880	          0.83426118	         -0.31100640	          1.44421196	          0.45940042	         -0.17128155	          1.44411492	          0.46616152	         -0.34103516	          1.42052543	          0.06314586	         -0.17178574	          1.41667390	          0.06592388	         -0.35619965	          1.52601910	          0.90579808	         -0.26091945	          1.53504848	          0.90781170	         -0.16040072	          1.51698959	          0.90378451	         -0.36143821	          1.37764513	          0.95747775	         -0.22221793	          1.37171018	          0.95692223	         -0.27674913	          1.45857322	          0.46196491	         -0.11825158	          1.44871604	          0.47056216	         -0.39516199	          1.42984390	          0.45314634	         -0.22341932	          1.43806338	          0.45404434	         -0.28628367	          1.41057265	          0.06369348	         -0.13459846	          1.40968847	          0.06783549	         -0.39401233	          1.44248009	          0.07694486	         -0.19949727	          1.43928230	          0.07582033	         -0.33336419	          1.37317598	          0.04273995	         -0.16720957	          1.37017131	          0.04811718	         -0.34411484	          1.49335778	          1.30110610	         -0.27911866	          1.56965077	          1.14349818	         -0.27253336	          1.40822375	          1.34757423	         -0.26654708	          1.51361024	          1.29639196	         -0.22034483	          1.50440669	          1.28819096	         -0.32872504	          1.53336775	          0.04110786	         -0.12627730	          1.53229272	          0.03921452	         -0.40742558	          1.59196210	          0.62164009	         -0.19074112	          1.57620811	          0.63244140	         -0.32098496	          1.52339351	          0.67756230	         -0.14238966	          1.50371301	          0.67696333	         -0.37555659	          1.50988019	          0.59258300	         -0.13742264	          1.50381196	          0.58893502	         -0.37256300	          1.41277540	          0.18605682	         -0.06262715	          1.36584198	          0.18795447	         -0.44446924	          1.41671336	          0.19249333	         -0.10427836	          1.38597894	          0.19146134	         -0.40619907	
          0.97500002	          1.52608430	          0.90587783	         -0.26059037	         -6.51697159	         -2.67440701	          4.44352579	          3.07220745	         -2.22829795	          9.87602806	          0.85701084	          3.31758618	          0.00000000	          0.00000000	          6.88122177	         -5.78510332	          9.87628078	         -3.51230574	          2.91656852	          0.00000000	          0.00000000	         -0.26074603	         -3.22318339	         -0.61396044	          1.45564115	          0.83537877	         -0.25296816	          1.46578538	          0.83646101	         -0.19512503	          1.44549692	          0.83429646	         -0.31081131	          1.44409466	          0.45940235	         -0.17104289	          1.44419277	          0.46619084	         -0.34086674	          1.42055058	          0.06315192	         -0.17169157	          1.41666901	          0.06594534	         -0.35617280	          1.52608430	          0.90587783	         -0.26059037	          1.53499341	          0.90784734	         -0.16003790	          1.51717520	          0.90390837	         -0.36114287	          1.37758565	          0.95743036	         -0.22194885	          1.37172270	          0.95687902	         -0.27653110	          1.45837939	          0.46196884	         -0.11799238	          1.44876122	          0.47059429	         -0.39499611	          1.42981839	          0.45306572	         -0.22299242	          1.43758881	          0.45434240	         -0.28579357	          1.41054487	          0.06368558	         -0.13451833	          1.40966117	          0.06787308	         -0.39398050	          1.44247925	          0.07699365	         -0.19939132	          1.43925965	          0.07585428	         -0.33331543	          1.37312996	          0.04272284	         -0.16718961	          1.37011898	          0.04812601	         -0.34403521	          1.49317980	          1.30114841	         -0.27885416	          1.56974530	          1.14368260	         -0.27203965	          1.40788054	          1.34753358	         -0.26630604	          1.51341367	          1.29654336	         -0.22003719	          1.50427365	          1.28819036	         -0.32846683	          1.53331542	          0.04111866	         -0.12619960	          1.53228354	          0.03918934	         -0.40741023	          1.59188032	          0.62164950	         -0.19027239	          1.57617021	          0.63239747	         -0.32054791	          1.52326775	          0.67755890	         -0.14205121	          1.50383389	          0.67704117	         -0.37528726	          1.50975323	          0.59257627	         -0.13702692	          1.50374103	          0.58892912	         -0.37216893	          1.41264868	          0.18603224	         -0.06255437	          1.36578774	          0.18800169	         -0.44437942	          1.41661739	          0.19252273	         -0.10415349	          1.38599825	          0.19150302	         -0.40609956	
          0.98333335	          1.52615833	          0.90594995	         -0.26026013	         -6.47853661	         -2.62416983	          4.38579369	          3.01179695	         -2.25774598	          9.87034607	          0.89442617	          3.30575776	          0.00000000	          0.00000000	          6.81151772	         -5.76307392	          9.74156666	         -3.50256062	          2.91208005	          0.00000000	          0.00000000	         -0.21933757	         -3.25730467	         -0.58638942	          1.45575655	          0.83539641	         -0.25276083	          1.46582878	          0.83645630	         -0.19490467	          1.44568431	          0.83433646	         -0.31061697	          1.44399989	          0.45940900	         -0.17081489	          1.44424844	          0.46621740	         -0.34068364	          1.42057467	          0.06316711	         -0.17160134	          1.41668320	          0.06597771	         -0.35615805	          1.52615833	          0.90594995	         -0.26026013	          1.53494406	          0.90787464	         -0.15967445	          1.51737273	          0.90402520	         -0.36084580	          1.37756133	          0.95740312	         -0.22170405	          1.37174201	          0.95684546	         -0.27629945	          1.45821548	          0.46197662	         -0.11774581	          1.44875932	          0.47062132	         -0.39481780	          1.42967486	          0.45304742	         -0.22269121	          1.43731105	          0.45446497	         -0.28559291	          1.41052103	          0.06368771	         -0.13444085	          1.40963602	          0.06792450	         -0.39395750	          1.44247866	          0.07703788	         -0.19931221	          1.43927431	          0.07590274	         -0.33330554	          1.37310004	          0.04271013	         -0.16717093	          1.37006545	          0.04817392	         -0.34396872	          1.49297035	          1.30116642	         -0.27858695	          1.56975901	          1.14381111	         -0.27172655	          1.40742552	          1.34752476	         -0.26604238	          1.51317418	          1.29659104	         -0.21972014	          1.50411332	          1.28822327	         -0.32822901	          1.53326797	          0.04113103	         -0.12611750	          1.53227305	          0.03913860	         -0.40739751	          1.59181404	          0.62168121	         -0.18982825	          1.57611716	          0.63233012	         -0.32009399	          1.52316153	          0.67755008	         -0.14178866	          1.50389779	          0.67709363	         -0.37498382	          1.50956619	          0.59256184	         -0.13670960	          1.50372815	          0.58900052	         -0.37185931	          1.41253114	          0.18601377	         -0.06248238	          1.36572778	          0.18804529	         -0.44429982	          1.41649258	          0.19254605	         -0.10403719	          1.38600457	          0.19154739	         -0.40604192	
          0.99166667	          1.52625227	          0.90601468	         -0.25994796	         -6.44917297	         -2.57150459	          4.32148504	          2.96488953	         -2.29014754	          9.88070011	          0.92253703	          3.29942441	          0.00000000	          0.00000000	          6.74388504	         -5.73526621	          9.58310890	         -3.48233485	          2.90078831	          0.00000000	          0.00000000	         -0.15610874	         -3.28994131	         -0.48916945	          1.45588017	          0.83541763	         -0.25258046	          1.46587324	          0.83645326	         -0.19471020	          1.44588697	          0.83438194	         -0.31045076	          1.44393539	          0.45941326	         -0.17060578	          1.44428229	          0.46624151	         -0.34049588	          1.42058861	          0.06318580	         -0.17152497	          1.41671944	          0.06601466	         -0.35616314	          1.52625227	          0.90601468	         -0.25994796	          1.53490281	          0.90789276	         -0.15932423	          1.51760185	          0.90413654	         -0.36057168	          1.37757456	          0.95740169	         -0.22149250	          1.37176096	          0.95682549	         -0.27605784	          1.45809019	          0.46198347	         -0.11752061	          1.44872010	          0.47064075	         -0.39463648	          1.42959726	          0.45306444	         -0.22249655	          1.43717778	          0.45445096	         -0.28562191	          1.41049254	          0.06369451	         -0.13437581	          1.40962291	          0.06798267	         -0.39395228	          1.44243383	          0.07704962	         -0.19926620	          1.43928850	          0.07594685	         -0.33331594	          1.37308633	          0.04270287	         -0.16715483	          1.37004757	          0.04822404	         -0.34395230	          1.49280143	          1.30120707	         -0.27830926	          1.56983924	          1.14397073	         -0.27151579	          1.40701365	          1.34751296	         -0.26579598	          1.51303673	          1.29665029	         -0.21945086	          1.50394416	          1.28829253	         -0.32795972	          1.53322637	          0.04113898	         -0.12603559	          1.53227532	          0.03908136	         -0.40739298	          1.59176934	          0.62172753	         -0.18941928	          1.57606995	          0.63225722	         -0.31967252	          1.52304339	          0.67752957	         -0.14151308	          1.50393462	          0.67713261	         -0.37465760	          1.50940812	          0.59259778	         -0.13642946	          1.50375521	          0.58911204	         -0.37162897	          1.41241586	          0.18599500	         -0.06241434	          1.36566710	          0.18808450	         -0.44423687	          1.41636074	          0.19255932	         -0.10392053	          1.38596237	          0.19159693	         -0.40599945	
